<?xml version="1.0" standalone="no"?><!DOCTYPE svg PUBLIC "-//W3C//DTD SVG 1.1//EN" "http://www.w3.org/Graphics/SVG/1.1/DTD/svg11.dtd"><svg t="1533640404563" class="icon" style="" viewBox="0 0 1265 1024" version="1.1" xmlns="http://www.w3.org/2000/svg" p-id="8558" xmlns:xlink="http://www.w3.org/1999/xlink" width="39.53125" height="32"><defs><style type="text/css"></style></defs><path d="M1138.447059 256c-69.812706 0-126.494118 57.404235-126.494118 128 0 16.865882 3.252706 32.888471 9.035294 47.585882L822.211765 512l-133.240471-269.613176C730.473412 221.605647 758.964706 178.115765 758.964706 128 758.964706 57.404235 702.283294 0 632.470588 0 562.657882 0 505.976471 57.404235 505.976471 128c0 50.115765 28.491294 93.605647 69.993412 114.386824L442.729412 512 243.892706 431.585882C249.735529 416.888471 252.988235 400.865882 252.988235 384c0-70.595765-56.681412-128-126.494118-128C56.681412 256 0 313.404235 0 384 0 454.776471 56.681412 512 126.494118 512c7.107765 0 14.215529-0.481882 21.082353-1.807059l67.403294 405.082353C221.364706 979.305412 278.226824 1024 335.149176 1024l588.318118 0c63.247059 0 113.724235-44.694588 126.494118-108.724706L1117.364706 510.192941c6.866824 1.325176 13.974588 1.807059 21.082353 1.807059 69.812706 0 126.494118-57.283765 126.494118-128C1264.941176 313.404235 1208.259765 256 1138.447059 256zM733.786353 876.122353 528.745412 876.122353l0-38.430118 80.112941 0L608.858353 570.428235 526.697412 593.799529 526.697412 552.899765l127.216941-36.382118 0 321.174588 79.872 0L733.786353 876.122353z" p-id="8559" fill="#FDA128"></path></svg>