<?xml version="1.0" standalone="no"?><!DOCTYPE svg PUBLIC "-//W3C//DTD SVG 1.1//EN" "http://www.w3.org/Graphics/SVG/1.1/DTD/svg11.dtd"><svg t="1533640394376" class="icon" style="" viewBox="0 0 1265 1024" version="1.1" xmlns="http://www.w3.org/2000/svg" p-id="8296" xmlns:xlink="http://www.w3.org/1999/xlink" width="39.53125" height="32"><defs><style type="text/css"></style></defs><path d="M1138.447059 256c-69.812706 0-126.494118 57.404235-126.494118 128 0 16.865882 3.252706 32.888471 9.035294 47.585882L822.211765 512l-133.180235-269.613176C730.473412 221.605647 758.964706 178.115765 758.964706 128 758.964706 57.404235 702.283294 0 632.470588 0 562.657882 0 505.976471 57.404235 505.976471 128c0 50.115765 28.431059 93.605647 69.993412 114.386824L442.729412 512 243.892706 431.585882C249.735529 416.888471 252.988235 400.865882 252.988235 384c0-70.595765-56.681412-128-126.494118-128C56.681412 256 0 313.404235 0 384 0 454.776471 56.681412 512 126.494118 512c7.107765 0 14.215529-0.481882 21.082353-1.807059l67.403294 405.082353C221.364706 979.305412 278.226824 1024 335.149176 1024l588.318118 0c63.247059 0 113.724235-44.694588 126.494118-108.724706L1117.364706 510.192941c6.866824 1.325176 13.974588 1.807059 21.082353 1.807059 69.812706 0 126.494118-57.283765 126.494118-128C1264.941176 313.404235 1208.259765 256 1138.447059 256zM735.111529 852.931765c-23.130353 19.395765-53.970824 29.093647-92.461176 29.093647-33.912471 0-61.199059-6.204235-81.980235-18.612706l0-46.140235c24.455529 18.612706 52.103529 27.949176 82.883765 27.949176 24.636235 0 44.152471-5.963294 58.548706-17.829647 14.396235-11.866353 21.564235-27.828706 21.564235-47.826824 0-44.574118-32.406588-66.800941-97.219765-66.800941L596.690824 712.764235 596.690824 675.84l28.370824 0c57.464471 0 86.136471-20.901647 86.136471-62.765176 0-38.610824-21.925647-57.946353-65.837176-57.946353-25.118118 0-48.730353 8.372706-70.896941 24.997647L574.464 538.142118c23.371294-13.372235 50.718118-19.998118 81.980235-19.998118 30.479059 0 54.934588 7.830588 73.426824 23.552 18.492235 15.661176 27.708235 36.020706 27.708235 61.018353 0 46.08-23.853176 75.715765-71.559529 88.847059l0 0.903529c25.840941 2.710588 46.260706 11.685647 61.319529 26.925176 14.998588 15.239529 22.528 34.213647 22.528 56.922353C769.867294 807.996235 758.302118 833.536 735.111529 852.931765z" p-id="8297" fill="#FDA128"></path></svg>