<?xml version="1.0" standalone="no"?><!DOCTYPE svg PUBLIC "-//W3C//DTD SVG 1.1//EN" "http://www.w3.org/Graphics/SVG/1.1/DTD/svg11.dtd"><svg t="1533640381491" class="icon" style="" viewBox="0 0 1265 1024" version="1.1" xmlns="http://www.w3.org/2000/svg" p-id="8142" xmlns:xlink="http://www.w3.org/1999/xlink" width="39.53125" height="32"><defs><style type="text/css"></style></defs><path d="M1138.447059 256c-69.812706 0-126.494118 57.404235-126.494118 128 0 16.865882 3.252706 32.888471 9.035294 47.585882L822.211765 512l-133.240471-269.613176C730.473412 221.605647 758.964706 178.115765 758.964706 128 758.964706 57.404235 702.283294 0 632.470588 0 562.657882 0 505.976471 57.404235 505.976471 128c0 50.115765 28.431059 93.605647 69.993412 114.386824L442.729412 512 243.892706 431.585882C249.735529 416.888471 252.988235 400.865882 252.988235 384c0-70.595765-56.681412-128-126.494118-128C56.681412 256 0 313.404235 0 384 0 454.776471 56.681412 512 126.494118 512c7.107765 0 14.215529-0.481882 21.082353-1.807059l67.403294 405.082353C221.364706 979.305412 278.226824 1024 335.149176 1024l588.318118 0c63.247059 0 113.724235-44.694588 126.494118-108.724706L1117.364706 510.192941c6.866824 1.325176 13.974588 1.807059 21.082353 1.807059 69.812706 0 126.494118-57.283765 126.494118-128C1264.941176 313.404235 1208.259765 256 1138.447059 256zM725.353412 836.547765l0 39.574588L507.843765 876.122353l0-38.671059 103.905882-102.038588c28.611765-28.190118 47.826824-50.537412 57.464471-66.921412 9.697882-16.444235 14.576941-33.490824 14.576941-51.019294 0-19.998118-5.722353-35.358118-17.106824-46.019765-11.384471-10.661647-27.888941-16.022588-49.392941-16.022588-31.864471 0-62.283294 13.372235-91.196235 39.996235L526.095059 550.189176c28.190118-21.383529 60.958118-32.045176 98.364235-32.045176 32.165647 0 57.584941 8.613647 76.197647 25.660235 18.612706 17.106824 27.949176 40.176941 27.949176 69.089882 0 21.805176-5.963294 43.248941-17.889882 64.210824-11.926588 20.961882-34.514824 47.706353-67.764706 80.112941l-81.498353 78.426353 0 0.903529L725.353412 836.547765z" p-id="8143"></path></svg>